<svg width="9" height="15" fill="none" xmlns="http://www.w3.org/2000/svg"><g clip-path="url(#clip0_342_1043)" fill="#CCC"><path d="M1.197.477l6.439 6.29a.547.547 0 010 .786.578.578 0 01-.805 0L.392 1.263a.547.547 0 010-.786.578.578 0 01.805 0z"/><path d="M.393 13.05L6.83 6.76a.578.578 0 01.928.18.547.547 0 01-.123.607l-6.439 6.29a.578.578 0 01-.927-.182.547.547 0 01.123-.605z"/></g><defs><clipPath id="clip0_342_1043"><path fill="#fff" transform="rotate(-180 4.013 7.156)" d="M0 0h8.026v14.312H0z"/></clipPath></defs></svg>