<svg width="16" height="17" fill="none" xmlns="http://www.w3.org/2000/svg"><g clip-path="url(#clip0_296_71)"><path d="M15.75 8.5A7.749 7.749 0 008 .75 7.749 7.749 0 00.25 8.5a7.753 7.753 0 006.54 7.656V10.74H4.82V8.5h1.97V6.793c0-1.943 1.155-3.016 2.926-3.016.848 0 1.735.152 1.735.152v1.906h-.977c-.963 0-1.263.598-1.263 1.21V8.5h2.15l-.344 2.24H9.21v5.416A7.753 7.753 0 0015.75 8.5z" fill="#6F7A8B" fill-opacity=".75"/></g><defs><clipPath id="clip0_296_71"><path fill="#fff" transform="translate(0 .5)" d="M0 0h16v16H0z"/></clipPath></defs></svg>