<svg width="16" height="19" fill="none" xmlns="http://www.w3.org/2000/svg"><g clip-path="url(#clip0_296_67)"><path d="M8.006 5.256A4.097 4.097 0 003.903 9.36a4.097 4.097 0 004.103 4.103A4.097 4.097 0 0012.11 9.36a4.097 4.097 0 00-4.104-4.104zm0 6.772A2.673 2.673 0 015.338 9.36a2.67 2.67 0 012.668-2.668 2.67 2.67 0 012.668 2.668c0 1.471-1.2 2.668-2.668 2.668zm5.229-6.94a.955.955 0 01-.957.958.957.957 0 11.957-.957zm2.718.972c-.061-1.282-.354-2.418-1.293-3.354-.936-.935-2.072-1.228-3.354-1.293-1.321-.075-5.282-.075-6.603 0-1.279.061-2.415.354-3.354 1.29C.41 3.638.121 4.774.056 6.056c-.075 1.322-.075 5.282 0 6.604.061 1.282.354 2.418 1.293 3.353.94.936 2.072 1.229 3.354 1.293 1.321.075 5.282.075 6.603 0 1.282-.06 2.418-.353 3.354-1.293.935-.935 1.228-2.071 1.293-3.353.075-1.322.075-5.279 0-6.6zm-1.707 8.018a2.7 2.7 0 01-1.522 1.521c-1.053.418-3.553.322-4.718.322-1.164 0-3.668.092-4.718-.322a2.701 2.701 0 01-1.521-1.521c-.418-1.054-.321-3.554-.321-4.718 0-1.164-.093-3.668.321-4.718a2.7 2.7 0 011.521-1.521c1.054-.418 3.554-.322 4.718-.322 1.165 0 3.668-.093 4.718.322a2.7 2.7 0 011.521 1.521c.418 1.054.322 3.554.322 4.718 0 1.164.096 3.668-.322 4.718z" fill="#6F7A8B" fill-opacity=".75"/></g><defs><clipPath id="clip0_296_67"><path fill="#fff" transform="translate(0 .357)" d="M0 0h16v18.286H0z"/></clipPath></defs></svg>