<svg width="18" height="21" fill="none" xmlns="http://www.w3.org/2000/svg"><path d="M17.59 5.334c.123-.426 0-.74-.595-.74h-1.968c-.501 0-.732.27-.856.57 0 0-1.002 2.493-2.419 4.11-.458.467-.668.617-.919.617-.123 0-.314-.15-.314-.576V5.334c0-.512-.14-.74-.555-.74H6.87c-.314 0-.501.239-.501.46 0 .485.708.597.782 1.962v2.96c0 .649-.114.768-.364.768-.669 0-2.293-2.504-3.255-5.37-.194-.555-.384-.78-.889-.78H.675c-.561 0-.675.27-.675.57 0 .532.668 3.175 3.111 6.668 1.627 2.385 3.92 3.677 6.005 3.677 1.253 0 1.407-.286 1.407-.78 0-2.28-.114-2.494.514-2.494.29 0 .792.15 1.961 1.3 1.337 1.364 1.558 1.974 2.306 1.974h1.968c.562 0 .846-.286.682-.852-.374-1.19-2.904-3.64-3.017-3.804-.291-.382-.208-.552 0-.894.003-.003 2.406-3.455 2.653-4.625z" fill="#6F7A8B" fill-opacity=".75"/></svg>