<svg width="19" height="21" viewBox="0 0 19 21" fill="none" xmlns="http://www.w3.org/2000/svg">
<g clip-path="url(#clip0_80_262)">
<path d="M18.4231 5.33397C18.5468 4.90757 18.4231 4.59375 17.8284 4.59375H15.8602C15.359 4.59375 15.1284 4.86323 15.0048 5.16341C15.0048 5.16341 14.0023 7.65695 12.5855 9.27383C12.1277 9.74116 11.9172 9.89125 11.6666 9.89125C11.543 9.89125 11.3525 9.74116 11.3525 9.31476V5.33397C11.3525 4.8223 11.2121 4.59375 10.7978 4.59375H7.70354C7.38944 4.59375 7.20231 4.83253 7.20231 5.05425C7.20231 5.53864 7.91072 5.6512 7.98423 7.01566V9.97652C7.98423 10.6246 7.87062 10.744 7.62 10.744C6.9517 10.744 5.32772 8.24026 4.36536 5.3749C4.17155 4.81889 3.98109 4.59375 3.47652 4.59375H1.50836C0.946986 4.59375 0.833374 4.86323 0.833374 5.16341C0.833374 5.69555 1.50168 8.33918 3.94433 11.8322C5.57165 14.2166 7.86393 15.5094 9.94905 15.5094C11.2021 15.5094 11.3558 15.2229 11.3558 14.7282C11.3558 12.4496 11.2422 12.2347 11.8704 12.2347C12.1611 12.2347 12.6624 12.3848 13.8319 13.5343C15.1685 14.8988 15.389 15.5094 16.1375 15.5094H18.1057C18.6671 15.5094 18.9511 15.2229 18.7874 14.6566C18.4131 13.4661 15.8836 11.0169 15.77 10.8532C15.4793 10.4711 15.5628 10.3006 15.77 9.95947C15.7733 9.95606 18.1759 6.50399 18.4231 5.33397Z" fill="white" fill-opacity="0.75"/>
</g>
<defs>
<clipPath id="clip0_80_262">
<rect width="18" height="21" fill="white" transform="translate(0.833374)"/>
</clipPath>
</defs>
</svg>
