<svg width="19" height="21" fill="none" xmlns="http://www.w3.org/2000/svg"><g clip-path="url(#clip0_80_262)"><path d="M18.423 5.334c.124-.426 0-.74-.595-.74H15.86c-.501 0-.732.27-.855.57 0 0-1.003 2.493-2.42 4.11-.457.467-.668.617-.918.617-.124 0-.315-.15-.315-.576V5.334c0-.512-.14-.74-.554-.74H7.704c-.315 0-.502.239-.502.46 0 .485.709.597.782 1.962v2.96c0 .649-.113.768-.364.768-.668 0-2.292-2.504-3.255-5.37-.193-.555-.384-.78-.888-.78H1.508c-.561 0-.675.27-.675.57 0 .532.669 3.175 3.111 6.668 1.628 2.385 3.92 3.677 6.005 3.677 1.253 0 1.407-.286 1.407-.78 0-2.28-.114-2.494.514-2.494.291 0 .792.15 1.962 1.3 1.336 1.364 1.557 1.974 2.305 1.974h1.969c.561 0 .845-.286.681-.852-.374-1.19-2.903-3.64-3.017-3.804-.29-.382-.207-.552 0-.894.003-.003 2.406-3.455 2.653-4.625z" fill="#fff" fill-opacity=".75"/></g><defs><clipPath id="clip0_80_262"><path fill="#fff" transform="translate(.833)" d="M0 0h18v21H0z"/></clipPath></defs></svg>