<svg width="9" height="15" viewBox="0 0 9 15" fill="none" xmlns="http://www.w3.org/2000/svg">
<g clip-path="url(#clip0_342_1043)">
<path d="M1.19702 0.477465L7.63593 6.76647C7.68866 6.81748 7.73059 6.87857 7.75922 6.94611C7.78786 7.01365 7.80262 7.08626 7.80262 7.15962C7.80262 7.23298 7.78786 7.3056 7.75922 7.37314C7.73059 7.44068 7.68866 7.50177 7.63593 7.55278C7.5281 7.65733 7.38379 7.7158 7.23359 7.7158C7.08339 7.7158 6.93908 7.65733 6.83125 7.55278L0.392332 1.26377C0.339604 1.21276 0.297676 1.15167 0.269041 1.08413C0.240405 1.01659 0.225649 0.943977 0.225649 0.870616C0.225649 0.797255 0.240405 0.724644 0.269041 0.657103C0.297676 0.589562 0.339604 0.528471 0.392332 0.477465C0.500169 0.372909 0.644473 0.314439 0.794676 0.314439C0.944878 0.314439 1.08918 0.372909 1.19702 0.477465V0.477465Z" fill="#CCCCCC"/>
<path d="M0.392528 13.0498L6.83144 6.76081C6.93928 6.65625 7.08358 6.59778 7.23379 6.59778C7.38399 6.59778 7.52829 6.65625 7.63613 6.76081C7.68886 6.81182 7.73079 6.87291 7.75942 6.94045C7.78806 7.00799 7.80281 7.0806 7.80281 7.15396C7.80281 7.22732 7.78806 7.29993 7.75942 7.36747C7.73079 7.43502 7.68886 7.49611 7.63613 7.54711L1.19722 13.8361C1.08919 13.9405 0.944788 13.9987 0.794585 13.9984C0.644383 13.9982 0.500182 13.9395 0.392528 13.8347C0.340018 13.7837 0.298274 13.7227 0.269769 13.6553C0.241263 13.5879 0.226575 13.5155 0.226575 13.4423C0.226575 13.3691 0.241263 13.2966 0.269769 13.2292C0.298274 13.1618 0.340018 13.1008 0.392528 13.0498V13.0498Z" fill="#CCCCCC"/>
</g>
<defs>
<clipPath id="clip0_342_1043">
<rect width="8.026" height="14.312" fill="white" transform="translate(8.02588 14.312) rotate(-180)"/>
</clipPath>
</defs>
</svg>
