<svg width="16" height="19" viewBox="0 0 16 19" fill="none" xmlns="http://www.w3.org/2000/svg">
<g clip-path="url(#clip0_296_67)">
<path d="M8.00624 5.25625C5.73482 5.25625 3.90267 7.08839 3.90267 9.35982C3.90267 11.6312 5.73482 13.4634 8.00624 13.4634C10.2777 13.4634 12.1098 11.6312 12.1098 9.35982C12.1098 7.08839 10.2777 5.25625 8.00624 5.25625ZM8.00624 12.0277C6.53839 12.0277 5.33839 10.8312 5.33839 9.35982C5.33839 7.88839 6.53481 6.69196 8.00624 6.69196C9.47767 6.69196 10.6741 7.88839 10.6741 9.35982C10.6741 10.8312 9.4741 12.0277 8.00624 12.0277ZM13.2348 5.08839C13.2348 5.62053 12.8062 6.04553 12.2777 6.04553C11.7455 6.04553 11.3205 5.61696 11.3205 5.08839C11.3205 4.55982 11.7491 4.13125 12.2777 4.13125C12.8062 4.13125 13.2348 4.55982 13.2348 5.08839ZM15.9527 6.05982C15.8919 4.77768 15.5991 3.64196 14.6598 2.70625C13.7241 1.77054 12.5884 1.47768 11.3062 1.41339C9.98481 1.33839 6.0241 1.33839 4.70267 1.41339C3.4241 1.47411 2.28839 1.76696 1.34911 2.70268C0.409821 3.63839 0.120536 4.7741 0.0562499 6.05625C-0.01875 7.37767 -0.01875 11.3384 0.0562499 12.6598C0.116964 13.942 0.409821 15.0777 1.34911 16.0134C2.28839 16.9491 3.42053 17.242 4.70267 17.3062C6.0241 17.3812 9.98481 17.3812 11.3062 17.3062C12.5884 17.2455 13.7241 16.9527 14.6598 16.0134C15.5955 15.0777 15.8884 13.942 15.9527 12.6598C16.0277 11.3384 16.0277 7.38125 15.9527 6.05982ZM14.2455 14.0777C13.9669 14.7777 13.4277 15.317 12.7241 15.5991C11.6705 16.017 9.17053 15.9205 8.00624 15.9205C6.84196 15.9205 4.33839 16.0134 3.28839 15.5991C2.58839 15.3205 2.0491 14.7812 1.76696 14.0777C1.34911 13.0241 1.44553 10.5241 1.44553 9.35982C1.44553 8.19553 1.35268 5.69196 1.76696 4.64196C2.04553 3.94196 2.58482 3.40268 3.28839 3.12053C4.34196 2.70268 6.84196 2.79911 8.00624 2.79911C9.17053 2.79911 11.6741 2.70625 12.7241 3.12053C13.4241 3.39911 13.9634 3.93839 14.2455 4.64196C14.6634 5.69553 14.5669 8.19553 14.5669 9.35982C14.5669 10.5241 14.6634 13.0277 14.2455 14.0777Z" fill="#6F7A8B" fill-opacity="0.75"/>
</g>
<defs>
<clipPath id="clip0_296_67">
<rect width="16" height="18.2857" fill="white" transform="translate(0 0.357143)"/>
</clipPath>
</defs>
</svg>
