<svg width="16" height="17" viewBox="0 0 16 17" fill="none" xmlns="http://www.w3.org/2000/svg">
<rect width="16" height="16" transform="translate(0 0.5)" fill="white"/>
<path d="M14.3553 5.24113C14.3655 5.38325 14.3655 5.52541 14.3655 5.66753C14.3655 10.0025 11.066 14.9975 5.03553 14.9975C3.17766 14.9975 1.45178 14.4594 0 13.5254C0.263969 13.5558 0.51775 13.566 0.791875 13.566C2.32484 13.566 3.73603 13.0483 4.86294 12.165C3.42131 12.1345 2.21319 11.1904 1.79694 9.89088C2 9.92131 2.20303 9.94163 2.41625 9.94163C2.71066 9.94163 3.00509 9.901 3.27919 9.82997C1.77666 9.52538 0.649719 8.2056 0.649719 6.61169V6.57109C1.08625 6.81475 1.59391 6.96703 2.13194 6.98731C1.24869 6.39847 0.670031 5.39341 0.670031 4.25634C0.670031 3.64722 0.832438 3.08884 1.11672 2.60153C2.73094 4.59138 5.15734 5.89084 7.87813 6.033C7.82738 5.78934 7.79691 5.53556 7.79691 5.28175C7.79691 3.47463 9.25884 2.00256 11.0761 2.00256C12.0203 2.00256 12.873 2.3985 13.472 3.03809C14.2131 2.89597 14.9238 2.62184 15.5533 2.24622C15.3096 3.00766 14.7918 3.64725 14.1116 4.05331C14.7715 3.98228 15.4111 3.7995 15.9999 3.54572C15.5533 4.19544 14.9949 4.77409 14.3553 5.24113Z" fill="#6F7A8B" fill-opacity="0.75"/>
</svg>
