<svg width="18" height="21" viewBox="0 0 18 21" fill="none" xmlns="http://www.w3.org/2000/svg">
<path d="M17.5898 5.33397C17.7134 4.90757 17.5898 4.59375 16.995 4.59375H15.0268C14.5256 4.59375 14.295 4.86323 14.1714 5.16341C14.1714 5.16341 13.1689 7.65695 11.7521 9.27383C11.2943 9.74116 11.0838 9.89125 10.8332 9.89125C10.7096 9.89125 10.5191 9.74116 10.5191 9.31476V5.33397C10.5191 4.8223 10.3788 4.59375 9.96442 4.59375H6.87017C6.55607 4.59375 6.36894 4.83253 6.36894 5.05425C6.36894 5.53864 7.07734 5.6512 7.15086 7.01566V9.97652C7.15086 10.6246 7.03724 10.744 6.78663 10.744C6.11833 10.744 4.49435 8.24026 3.53199 5.3749C3.33818 4.81889 3.14771 4.59375 2.64314 4.59375H0.674987C0.113612 4.59375 0 4.86323 0 5.16341C0 5.69555 0.668304 8.33918 3.11096 11.8322C4.73828 14.2166 7.03056 15.5094 9.11567 15.5094C10.3687 15.5094 10.5225 15.2229 10.5225 14.7282C10.5225 12.4496 10.4088 12.2347 11.037 12.2347C11.3278 12.2347 11.829 12.3848 12.9985 13.5343C14.3351 14.8988 14.5557 15.5094 15.3042 15.5094H17.2723C17.8337 15.5094 18.1177 15.2229 17.954 14.6566C17.5797 13.4661 15.0502 11.0169 14.9366 10.8532C14.6459 10.4711 14.7294 10.3006 14.9366 9.95947C14.9399 9.95606 17.3425 6.50399 17.5898 5.33397Z" fill="#6F7A8B" fill-opacity="0.75"/>
</svg>
